<svg width="40" height="40" viewBox="0 0 40 40" fill="none" xmlns="http://www.w3.org/2000/svg">
<path fill-rule="evenodd" clip-rule="evenodd" d="M19.9997 4.58325C11.4853 4.58325 4.58301 11.4855 4.58301 19.9999C4.58301 28.5143 11.4853 35.4166 19.9997 35.4166C28.514 35.4166 35.4163 28.5143 35.4163 19.9999C35.4163 11.4855 28.514 4.58325 19.9997 4.58325ZM2.08301 19.9999C2.08301 10.1048 10.1046 2.08325 19.9997 2.08325C29.8948 2.08325 37.9163 10.1048 37.9163 19.9999C37.9163 29.8951 29.8948 37.9166 19.9997 37.9166C10.1046 37.9166 2.08301 29.8951 2.08301 19.9999ZM20.0502 14.116C20.5383 14.6042 20.5383 15.3957 20.0502 15.8838L15.9341 19.9999L20.0502 24.1161C20.5383 24.6043 20.5383 25.3956 20.0502 25.8838C19.562 26.3719 18.7707 26.3719 18.2825 25.8838L13.2825 20.8838C12.7943 20.3956 12.7943 19.6043 13.2825 19.1161L18.2825 14.116C18.7707 13.6279 19.562 13.6279 20.0502 14.116ZM26.7168 14.116C27.205 14.6042 27.205 15.3957 26.7168 15.8838L22.6008 19.9999L26.7168 24.1161C27.205 24.6043 27.205 25.3956 26.7168 25.8838C26.2287 26.3719 25.4373 26.3719 24.9492 25.8838L19.9492 20.8838C19.461 20.3956 19.461 19.6043 19.9492 19.1161L24.9492 14.116C25.4373 13.6279 26.2287 13.6279 26.7168 14.116Z" fill="#22D3EE"/>
</svg>
