<svg width="32" height="32" viewBox="0 0 32 32" fill="none" xmlns="http://www.w3.org/2000/svg">
<path d="M16 9.66663C16.5523 9.66663 17 10.1143 17 10.6666V17.3333C17 17.8856 16.5523 18.3333 16 18.3333C15.4477 18.3333 15 17.8856 15 17.3333V10.6666C15 10.1143 15.4477 9.66663 16 9.66663Z" fill="#BA7517"/>
<path d="M16.0003 22.6667C16.7367 22.6667 17.3337 22.0697 17.3337 21.3333C17.3337 20.5969 16.7367 20 16.0003 20C15.2639 20 14.667 20.5969 14.667 21.3333C14.667 22.0697 15.2639 22.6667 16.0003 22.6667Z" fill="#BA7517"/>
<path fill-rule="evenodd" clip-rule="evenodd" d="M11.0595 5.96857C12.4887 4.15324 14.0027 3 16.0003 3C17.9978 3 19.5118 4.15324 20.9411 5.96857C22.3467 7.75392 23.8362 10.395 25.7421 13.774L26.3227 14.8036C27.8982 17.5968 29.1425 19.8031 29.7961 21.5739C30.4641 23.3835 30.6227 25.0265 29.6123 26.4759C28.6318 27.8824 26.9958 28.4579 24.9325 28.7295C22.8771 29 20.113 29 16.5667 29H15.4339C11.8877 29 9.12351 29 7.06809 28.7295C5.00474 28.4579 3.36882 27.8824 2.38831 26.4759C1.3779 25.0265 1.53657 23.3835 2.20451 21.5739C2.85811 19.8031 4.10243 17.5969 5.6779 14.8036L6.25847 13.7743C8.16433 10.3951 9.65391 7.75396 11.0595 5.96857ZM12.631 7.20576C11.3323 8.85531 9.91638 11.3598 7.95359 14.8399L7.46871 15.6996C5.83375 18.5984 4.6719 20.6648 4.08078 22.2664C3.49726 23.8473 3.57817 24.6855 4.02897 25.3321C4.50969 26.0217 5.41197 26.4941 7.32911 26.7465C9.23843 26.9979 11.8705 27 15.5154 27H16.4851C20.1302 27 22.7622 26.9979 24.6715 26.7465C26.5886 26.4941 27.4909 26.0217 27.9717 25.3321C28.4225 24.6855 28.5034 23.8473 27.9198 22.2664C27.3287 20.6648 26.1669 18.5984 24.5319 15.6996L24.047 14.8399C22.0842 11.3598 20.6683 8.85531 19.3697 7.20575C18.083 5.57153 17.0838 5 16.0003 5C14.9169 5 13.9175 5.57153 12.631 7.20576Z" fill="#BA7517"/>
</svg>
