<svg width="16" height="16" viewBox="0 0 16 16" fill="none" xmlns="http://www.w3.org/2000/svg">
<g clip-path="url(#clip0_869_30979)">
<path fill-rule="evenodd" clip-rule="evenodd" d="M4.66665 1.16675C4.94279 1.16675 5.16665 1.39061 5.16665 1.66675V2.17523C5.608 2.16674 6.09425 2.16674 6.62903 2.16675H9.37091C9.90571 2.16674 10.392 2.16674 10.8333 2.17523V1.66675C10.8333 1.39061 11.0572 1.16675 11.3333 1.16675C11.6094 1.16675 11.8333 1.39061 11.8333 1.66675V2.21814C12.0066 2.23135 12.1707 2.24796 12.326 2.26883C13.1076 2.37392 13.7402 2.59533 14.2392 3.09424C14.738 3.59315 14.9594 4.22578 15.0646 5.0074C15.0981 5.25719 15.1206 5.52981 15.1358 5.8268C15.1558 5.88079 15.1666 5.93915 15.1666 6.00008C15.1666 6.04629 15.1604 6.09104 15.1486 6.13352C15.1666 6.66815 15.1666 7.27528 15.1666 7.96248V9.37102C15.1666 10.5962 15.1666 11.5666 15.0646 12.3261C14.9594 13.1077 14.738 13.7403 14.2392 14.2393C13.7402 14.7381 13.1076 14.9595 12.326 15.0647C11.5665 15.1667 10.5961 15.1667 9.37091 15.1667H6.62904C5.40387 15.1667 4.43344 15.1667 3.67397 15.0647C2.89235 14.9595 2.25972 14.7381 1.76081 14.2393C1.2619 13.7403 1.04049 13.1077 0.935407 12.3261C0.833293 11.5666 0.8333 10.5962 0.833313 9.37102V7.96248C0.833307 7.27521 0.8333 6.66815 0.85132 6.13353C0.839587 6.09105 0.833313 6.04629 0.833313 6.00008C0.833313 5.93916 0.844207 5.88078 0.86416 5.82679C0.87928 5.5298 0.90182 5.25719 0.935407 5.0074C1.04049 4.22579 1.2619 3.59315 1.76081 3.09424C2.25972 2.59533 2.89235 2.37392 3.67397 2.26883C3.82925 2.24796 3.99335 2.23135 4.16665 2.21814V1.66675C4.16665 1.39061 4.39051 1.16675 4.66665 1.16675ZM1.84204 6.50008C1.83353 6.93521 1.83331 7.43075 1.83331 8.00008V9.33342C1.83331 10.6046 1.83437 11.5077 1.92649 12.1929C2.01666 12.8635 2.18577 13.25 2.46791 13.5321C2.75005 13.8143 3.13649 13.9834 3.80721 14.0735C4.49232 14.1657 5.39543 14.1667 6.66665 14.1667H9.33331C10.6045 14.1667 11.5076 14.1657 12.1928 14.0735C12.8634 13.9834 13.2499 13.8143 13.532 13.5321C13.8142 13.25 13.9833 12.8635 14.0734 12.1929C14.1656 11.5077 14.1666 10.6046 14.1666 9.33342V8.00008C14.1666 7.43075 14.1664 6.93521 14.1579 6.50008H1.84204ZM14.1122 5.50008H1.88777C1.89845 5.37382 1.91121 5.25423 1.92649 5.14065C2.01666 4.46992 2.18577 4.08349 2.46791 3.80135C2.75005 3.51921 3.13649 3.35009 3.80721 3.25992C4.49232 3.16781 5.39543 3.16675 6.66665 3.16675H9.33331C10.6045 3.16675 11.5076 3.16781 12.1928 3.25992C12.8634 3.35009 13.2499 3.51921 13.532 3.80135C13.8142 4.08349 13.9833 4.46992 14.0734 5.14065C14.0887 5.25423 14.1015 5.37382 14.1122 5.50008Z" fill="#67E8F9"/>
</g>
<defs>
<clipPath id="clip0_869_30979">
<rect width="16" height="16" fill="white"/>
</clipPath>
</defs>
</svg>
