<svg width="40" height="40" viewBox="0 0 40 40" fill="none" xmlns="http://www.w3.org/2000/svg">
<path fill-rule="evenodd" clip-rule="evenodd" d="M20.0003 35.4168C28.5147 35.4168 35.417 28.5145 35.417 20.0001C35.417 11.4858 28.5147 4.58342 20.0003 4.58342C11.486 4.58342 4.58366 11.4858 4.58366 20.0001C4.58366 28.5145 11.486 35.4168 20.0003 35.4168ZM37.917 20.0001C37.917 29.8952 29.8954 37.9168 20.0003 37.9168C10.1052 37.9168 2.08366 29.8952 2.08366 20.0001C2.08366 10.1049 10.1052 2.08342 20.0003 2.08342C29.8954 2.08342 37.917 10.1049 37.917 20.0001ZM19.9498 25.884C19.4617 25.3958 19.4617 24.6044 19.9498 24.1162L24.0659 20.0001L19.9498 15.8839C19.4617 15.3958 19.4617 14.6044 19.9498 14.1163C20.438 13.6281 21.2293 13.6281 21.7175 14.1163L26.7175 19.1163C27.2057 19.6044 27.2057 20.3958 26.7175 20.8839L21.7175 25.884C21.2293 26.3721 20.438 26.3721 19.9498 25.884ZM13.2832 25.884C12.795 25.3958 12.795 24.6044 13.2832 24.1162L17.3992 20.0001L13.2832 15.8839C12.795 15.3958 12.795 14.6044 13.2832 14.1163C13.7713 13.6281 14.5627 13.6281 15.0508 14.1163L20.0508 19.1163C20.539 19.6044 20.539 20.3958 20.0508 20.8839L15.0508 25.884C14.5627 26.3721 13.7713 26.3721 13.2832 25.884Z" fill="#22D3EE"/>
</svg>
