<svg width="24" height="24" viewBox="0 0 24 24" fill="none" xmlns="http://www.w3.org/2000/svg">
<g clip-path="url(#clip0_869_32547)">
<path d="M16.8853 18.272L14.4005 19.6123L12.201 20.8137C12.1004 20.8688 11.9458 20.8631 11.8226 20.792L3.10257 15.7458C2.36515 15.319 1.86007 14.579 1.50401 13.8564C1.07381 12.983 1.01984 11.9937 1.28704 11.0863C1.53497 10.2439 2.07744 9.58521 2.78614 9.09438C3.13509 8.85276 3.51857 8.67969 3.90498 8.4978L5.97091 7.52587L9.13647 6.07429L11.0308 5.20422C11.3829 5.04267 11.76 4.88074 12.1472 4.82402C13.1199 4.68135 14.2365 5.02252 14.9744 5.68117C15.8279 6.44258 16.1873 7.29725 16.2091 8.39796C16.2309 9.47442 15.7442 10.4402 14.9295 11.1109L14.8153 11.2046C14.7901 11.226 14.886 11.3406 14.9223 11.3616L15.8895 11.9242L18.605 13.4941L21.5464 15.186C21.6688 15.2567 21.6906 15.6711 21.5686 15.7392L20.7903 16.1718L16.8848 18.2706L16.8853 18.272ZM8.55806 13.3924L10.3354 12.5668L14.0608 10.7912C15.0372 10.326 15.5814 9.20096 15.4784 8.16642C15.307 6.4431 13.7073 5.16952 11.9851 5.64086C11.5728 5.75396 11.2001 5.92153 10.8171 6.10121L9.23311 6.84486L6.50903 8.09354L5.8431 8.38375C6.2055 8.49463 6.51542 8.57734 6.82711 8.73508C8.56197 9.61087 9.33757 11.5677 8.55762 13.3911L8.55806 13.3924ZM3.50249 11.3238C3.02757 12.0626 3.17052 12.9182 3.67503 13.5606C4.55264 14.6785 6.06648 14.8619 7.12023 14.0226C7.7263 13.5403 8.09311 12.8194 8.13436 12.0522C8.16975 11.3937 7.91829 10.7875 7.53381 10.2609C6.70339 9.12265 5.02871 8.71202 3.69101 9.39165C1.98068 10.2612 1.39126 12.1174 2.26436 13.7677C2.552 14.3112 3.10093 14.9306 3.63822 15.2408L12.0006 20.071L14.3785 18.78L16.5462 17.6152L18.6594 16.4887L19.9989 15.7593L20.3702 15.557L20.5003 15.4861C20.5298 15.4704 20.4154 15.3801 20.3856 15.3629L16.1419 12.9149L14.1251 11.7441C14.0591 11.706 13.8911 11.701 13.8162 11.736L9.86149 13.598L7.19145 14.8852C6.57669 15.1817 5.92058 15.3433 5.23333 15.25C4.25373 15.118 3.39206 14.538 2.89001 13.6961C2.44585 12.9511 2.35289 12.1001 2.68228 11.2952C3.01372 10.483 3.74902 9.86798 4.62223 9.70803C5.43373 9.56004 6.27529 9.78048 6.86425 10.3658C7.80327 11.2992 7.67968 12.8416 6.64173 13.6013C6.05037 14.034 5.31681 14.0377 4.69163 13.6545C3.62419 13.0012 3.76826 11.6113 4.28977 11.3498C4.52832 11.2306 4.86054 11.5165 4.78531 11.7417L4.62744 12.2142C4.51261 12.5582 4.99193 13.2442 5.6847 13.1958C6.20696 13.16 6.5843 12.7687 6.70262 12.2829C6.81238 11.8323 6.759 11.3499 6.44567 10.9829C6.0995 10.5779 5.55869 10.3408 5.02429 10.3939C4.4214 10.454 3.85268 10.7749 3.50189 11.3211L3.50249 11.3238Z" fill="#2DD4BF" stroke="#2DD4BF" stroke-width="0.45"/>
</g>
<defs>
<clipPath id="clip0_869_32547">
<rect width="24" height="24" fill="white"/>
</clipPath>
</defs>
</svg>
