<svg width="40" height="40" viewBox="0 0 40 40" fill="none" xmlns="http://www.w3.org/2000/svg">
<rect width="40" height="40" rx="12" fill="#070B10"/>
<path fill-rule="evenodd" clip-rule="evenodd" d="M20 9.25C17.3767 9.25 15.25 11.3767 15.25 14C15.25 16.6234 17.3767 18.75 20 18.75C22.6234 18.75 24.75 16.6234 24.75 14C24.75 11.3767 22.6234 9.25 20 9.25ZM16.75 14C16.75 12.2051 18.2051 10.75 20 10.75C21.7949 10.75 23.25 12.2051 23.25 14C23.25 15.7949 21.7949 17.25 20 17.25C18.2051 17.25 16.75 15.7949 16.75 14Z" fill="#22D3EE"/>
<path d="M26 11.25C25.5858 11.25 25.25 11.5858 25.25 12C25.25 12.4142 25.5858 12.75 26 12.75C27.3765 12.75 28.25 13.6557 28.25 14.5C28.25 15.3443 27.3765 16.25 26 16.25C25.5858 16.25 25.25 16.5858 25.25 17C25.25 17.4142 25.5858 17.75 26 17.75C27.9372 17.75 29.75 16.4172 29.75 14.5C29.75 12.5828 27.9372 11.25 26 11.25Z" fill="#22D3EE"/>
<path d="M14.75 12C14.75 11.5858 14.4142 11.25 14 11.25C12.0628 11.25 10.25 12.5828 10.25 14.5C10.25 16.4172 12.0628 17.75 14 17.75C14.4142 17.75 14.75 17.4142 14.75 17C14.75 16.5858 14.4142 16.25 14 16.25C12.6235 16.25 11.75 15.3443 11.75 14.5C11.75 13.6557 12.6235 12.75 14 12.75C14.4142 12.75 14.75 12.4142 14.75 12Z" fill="#22D3EE"/>
<path fill-rule="evenodd" clip-rule="evenodd" d="M20 20.25C18.2157 20.25 16.5665 20.7308 15.3413 21.5475C14.1215 22.3608 13.25 23.5666 13.25 25C13.25 26.4334 14.1215 27.6392 15.3413 28.4525C16.5665 29.2692 18.2157 29.75 20 29.75C21.7843 29.75 23.4335 29.2692 24.6587 28.4525C25.8785 27.6392 26.75 26.4334 26.75 25C26.75 23.5666 25.8785 22.3608 24.6587 21.5475C23.4335 20.7308 21.7843 20.25 20 20.25ZM14.75 25C14.75 24.2242 15.2217 23.4301 16.1734 22.7956C17.1198 22.1646 18.4706 21.75 20 21.75C21.5294 21.75 22.8802 22.1646 23.8266 22.7956C24.7783 23.4301 25.25 24.2242 25.25 25C25.25 25.7758 24.7783 26.5699 23.8266 27.2044C22.8802 27.8354 21.5294 28.25 20 28.25C18.4706 28.25 17.1198 27.8354 16.1734 27.2044C15.2217 26.5699 14.75 25.7758 14.75 25Z" fill="#22D3EE"/>
<path d="M27.2674 21.8395C27.3561 21.4349 27.7561 21.1789 28.1607 21.2676C29.1225 21.4785 29.9893 21.8595 30.6328 22.3861C31.2758 22.9122 31.75 23.6354 31.75 24.5002C31.75 25.365 31.2758 26.0882 30.6328 26.6143C29.9893 27.1409 29.1225 27.5219 28.1607 27.7328C27.7561 27.8215 27.3561 27.5655 27.2674 27.1609C27.1787 26.7563 27.4347 26.3563 27.8393 26.2676C28.6317 26.0938 29.2649 25.7954 29.6829 25.4534C30.1014 25.111 30.25 24.7765 30.25 24.5002C30.25 24.2239 30.1014 23.8894 29.6829 23.547C29.2649 23.205 28.6317 22.9066 27.8393 22.7328C27.4347 22.6441 27.1787 22.2441 27.2674 21.8395Z" fill="#22D3EE"/>
<path d="M11.8393 21.2676C12.2439 21.1789 12.6439 21.4349 12.7326 21.8395C12.8213 22.2441 12.5652 22.6441 12.1606 22.7328C11.3683 22.9066 10.7351 23.205 10.3171 23.547C9.89863 23.8894 9.75 24.2239 9.75 24.5002C9.75 24.7765 9.89863 25.111 10.3171 25.4534C10.7351 25.7954 11.3683 26.0938 12.1606 26.2676C12.5652 26.3563 12.8213 26.7563 12.7326 27.1609C12.6439 27.5655 12.2439 27.8215 11.8393 27.7328C10.8775 27.5219 10.0107 27.1409 9.36719 26.6143C8.72425 26.0882 8.25 25.365 8.25 24.5002C8.25 23.6354 8.72425 22.9122 9.36719 22.3861C10.0107 21.8595 10.8775 21.4785 11.8393 21.2676Z" fill="#22D3EE"/>
</svg>
