<svg width="40" height="40" viewBox="0 0 40 40" fill="none" xmlns="http://www.w3.org/2000/svg">
<path fill-rule="evenodd" clip-rule="evenodd" d="M18.458 12.5139C16.2437 11.2066 13.75 12.9844 13.75 15.3553V24.6447C13.75 27.0155 16.2437 28.7933 18.458 27.486L26.325 22.8413C28.4472 21.5883 28.4472 18.4117 26.325 17.1587L18.458 12.5139ZM16.25 15.3553C16.25 15.0245 16.4102 14.7931 16.5991 14.675C16.7818 14.5607 16.9865 14.5483 17.187 14.6667L25.054 19.3115C25.275 19.442 25.4167 19.6913 25.4167 20C25.4167 20.3087 25.275 20.558 25.054 20.6885L17.187 25.3333C16.9865 25.4517 16.7818 25.4393 16.5991 25.325C16.4102 25.207 16.25 24.9755 16.25 24.6447V15.3553Z" fill="#22D3EE"/>
<path fill-rule="evenodd" clip-rule="evenodd" d="M19.9997 2.08325C10.1046 2.08325 2.08301 10.1048 2.08301 19.9999C2.08301 29.8951 10.1046 37.9166 19.9997 37.9166C29.8948 37.9166 37.9163 29.8951 37.9163 19.9999C37.9163 10.1048 29.8948 2.08325 19.9997 2.08325ZM4.58301 19.9999C4.58301 11.4855 11.4853 4.58325 19.9997 4.58325C28.514 4.58325 35.4163 11.4855 35.4163 19.9999C35.4163 28.5143 28.514 35.4166 19.9997 35.4166C11.4853 35.4166 4.58301 28.5143 4.58301 19.9999Z" fill="#22D3EE"/>
</svg>
