<svg width="24" height="24" viewBox="0 0 24 24" fill="none" xmlns="http://www.w3.org/2000/svg">
<path fill-rule="evenodd" clip-rule="evenodd" d="M11.0748 7.50841C9.74622 6.72401 8.25 7.79071 8.25 9.21322V14.7869C8.25 16.2094 9.74622 17.2761 11.0748 16.4917L15.795 13.7049C17.0683 12.9531 17.0683 11.0471 15.795 10.2953L11.0748 7.50841ZM9.75 9.21322C9.75 9.01474 9.84615 8.87591 9.95947 8.80504C10.0691 8.73647 10.1919 8.72904 10.3122 8.80009L15.0324 11.587C15.165 11.6653 15.25 11.8149 15.25 12.0001C15.25 12.1853 15.165 12.3349 15.0324 12.4132L10.3122 15.2001C10.1919 15.2711 10.0691 15.2637 9.95947 15.1951C9.84615 15.1243 9.75 14.9854 9.75 14.7869V9.21322Z" fill="#94A3B8"/>
<path fill-rule="evenodd" clip-rule="evenodd" d="M12 1.25C6.06294 1.25 1.25 6.06294 1.25 12C1.25 17.9371 6.06294 22.75 12 22.75C17.9371 22.75 22.75 17.9371 22.75 12C22.75 6.06294 17.9371 1.25 12 1.25ZM2.75 12C2.75 6.89137 6.89137 2.75 12 2.75C17.1086 2.75 21.25 6.89137 21.25 12C21.25 17.1086 17.1086 21.25 12 21.25C6.89137 21.25 2.75 17.1086 2.75 12Z" fill="#94A3B8"/>
</svg>
