<svg width="24" height="24" viewBox="0 0 24 24" fill="none" xmlns="http://www.w3.org/2000/svg">
<path fill-rule="evenodd" clip-rule="evenodd" d="M12.4803 2.76053C13.2315 2.30892 14.208 2.28691 15.0418 2.88991C17.7027 4.8143 20.75 8.24464 20.75 13.111C20.75 16.9174 19.1146 19.3651 17.0325 20.8349C15.7533 21.7379 14.3232 22.2608 13.0331 22.5257C12.5577 22.6871 12.1 22.7499 11.7333 22.7499C11.6306 22.7499 11.521 22.7459 11.4058 22.7373C11.242 22.7459 11.0843 22.7499 10.9333 22.7499C9.47245 22.7499 7.31363 22.2657 5.50409 20.8059C3.6625 19.3202 2.25 16.877 2.25 13.111C2.25 10.0343 3.87536 7.96514 5.40507 6.7982C6.04192 6.31238 6.80509 6.30429 7.40898 6.63401C7.99302 6.95289 8.40231 7.56756 8.47627 8.28952L8.5621 9.12735C8.59508 9.44937 8.75974 9.71665 8.93177 9.84677C9.0125 9.90783 9.07802 9.927 9.12163 9.93028C9.15843 9.93305 9.21562 9.92809 9.30063 9.87284C9.95369 9.44843 10.4496 8.685 10.7833 7.78658C11.1138 6.89647 11.25 5.96657 11.25 5.3333V5.00967C11.25 4.0369 11.7444 3.20288 12.4803 2.76053ZM12.6314 21.0765C12.2057 21.1594 11.7992 21.21 11.4272 21.2337C10.9433 21.1847 10.3335 21.0196 9.82415 20.6703C9.23942 20.2693 8.75 19.6064 8.75 18.4444C8.75 17.0421 9.61756 15.9771 10.5398 15.2949C10.5423 15.305 10.5441 15.3177 10.5441 15.3333V15.3442C10.5441 15.5719 10.5441 15.9165 10.587 16.2749C10.6296 16.6314 10.7214 17.0697 10.9474 17.4552C11.1049 17.7239 11.3471 17.9512 11.6758 18.048C11.9989 18.1432 12.3068 18.0832 12.5468 17.9699C13.0028 17.7544 13.3288 17.3046 13.4657 16.8302C13.8778 17.1658 14.25 17.6906 14.25 18.4444C14.25 19.6479 13.8025 20.3144 13.3124 20.6985C13.0975 20.8669 12.8624 20.9899 12.6314 21.0765ZM15.5176 20.0224C15.7384 19.8963 15.9557 19.7589 16.1675 19.6094C17.8631 18.4125 19.25 16.4158 19.25 13.111C19.25 8.92383 16.6279 5.88816 14.1627 4.10537C13.838 3.87054 13.5133 3.88969 13.2531 4.04613C12.9775 4.21182 12.75 4.55274 12.75 5.00967V5.3333C12.75 6.1419 12.5831 7.24885 12.1894 8.3088C11.7988 9.36044 11.1494 10.4603 10.118 11.1305C9.38388 11.6076 8.59212 11.4705 8.02694 11.0431C7.49344 10.6396 7.14144 9.9785 7.0699 9.28021L6.98408 8.44238C6.95826 8.19033 6.82167 8.02235 6.69016 7.95055C6.5785 7.88959 6.45645 7.88278 6.31484 7.99081C5.04758 8.95754 3.75 10.6246 3.75 13.111C3.75 16.4561 4.98195 18.4574 6.44591 19.6384C6.84345 19.9591 7.263 20.2232 7.68701 20.438C7.41384 19.8887 7.25 19.2281 7.25 18.4444C7.25 16.3409 8.57017 14.8716 9.69806 14.052C10.2109 13.6794 10.8273 13.6906 11.2979 13.9754C11.7522 14.2503 12.0441 14.7588 12.0441 15.3333C12.0441 15.5681 12.0448 15.8334 12.0763 16.0968C12.0815 16.1399 12.0873 16.1813 12.0938 16.2209C12.254 15.8524 12.5484 15.5665 12.897 15.4154C13.3152 15.2341 13.847 15.2378 14.2912 15.5718C14.9907 16.0979 15.75 17.0423 15.75 18.4444C15.75 19.0382 15.666 19.5626 15.5176 20.0224Z" fill="#94A3B8"/>
</svg>
