<svg width="24" height="24" viewBox="0 0 24 24" fill="none" xmlns="http://www.w3.org/2000/svg">
<path fill-rule="evenodd" clip-rule="evenodd" d="M12 1.25C9.37665 1.25 7.25 3.37665 7.25 6C7.25 8.62335 9.37665 10.75 12 10.75C14.6234 10.75 16.75 8.62335 16.75 6C16.75 3.37665 14.6234 1.25 12 1.25ZM8.75 6C8.75 4.20507 10.2051 2.75 12 2.75C13.7949 2.75 15.25 4.20507 15.25 6C15.25 7.79493 13.7949 9.25 12 9.25C10.2051 9.25 8.75 7.79493 8.75 6Z" fill="#94A3B8"/>
<path d="M18 3.25C17.5858 3.25 17.25 3.58579 17.25 4C17.25 4.41421 17.5858 4.75 18 4.75C19.3765 4.75 20.25 5.65573 20.25 6.5C20.25 7.34427 19.3765 8.25 18 8.25C17.5858 8.25 17.25 8.58579 17.25 9C17.25 9.41421 17.5858 9.75 18 9.75C19.9372 9.75 21.75 8.41715 21.75 6.5C21.75 4.58285 19.9372 3.25 18 3.25Z" fill="#94A3B8"/>
<path d="M6.75 4C6.75 3.58579 6.41421 3.25 6 3.25C4.06278 3.25 2.25 4.58285 2.25 6.5C2.25 8.41715 4.06278 9.75 6 9.75C6.41421 9.75 6.75 9.41421 6.75 9C6.75 8.58579 6.41421 8.25 6 8.25C4.62351 8.25 3.75 7.34427 3.75 6.5C3.75 5.65573 4.62351 4.75 6 4.75C6.41421 4.75 6.75 4.41421 6.75 4Z" fill="#94A3B8"/>
<path fill-rule="evenodd" clip-rule="evenodd" d="M12 12.25C10.2157 12.25 8.56645 12.7308 7.34133 13.5475C6.12146 14.3608 5.25 15.5666 5.25 17C5.25 18.4334 6.12146 19.6392 7.34133 20.4525C8.56645 21.2692 10.2157 21.75 12 21.75C13.7843 21.75 15.4335 21.2692 16.6587 20.4525C17.8785 19.6392 18.75 18.4334 18.75 17C18.75 15.5666 17.8785 14.3608 16.6587 13.5475C15.4335 12.7308 13.7843 12.25 12 12.25ZM6.75 17C6.75 16.2242 7.22169 15.4301 8.17338 14.7956C9.11984 14.1646 10.4706 13.75 12 13.75C13.5294 13.75 14.8802 14.1646 15.8266 14.7956C16.7783 15.4301 17.25 16.2242 17.25 17C17.25 17.7758 16.7783 18.5699 15.8266 19.2044C14.8802 19.8354 13.5294 20.25 12 20.25C10.4706 20.25 9.11984 19.8354 8.17338 19.2044C7.22169 18.5699 6.75 17.7758 6.75 17Z" fill="#94A3B8"/>
<path d="M19.2674 13.8392C19.3561 13.4346 19.7561 13.1786 20.1607 13.2673C21.1225 13.4782 21.9893 13.8592 22.6328 14.3858C23.2758 14.9119 23.75 15.6351 23.75 16.4999C23.75 17.3647 23.2758 18.0879 22.6328 18.614C21.9893 19.1406 21.1225 19.5216 20.1607 19.7325C19.7561 19.8212 19.3561 19.5652 19.2674 19.1606C19.1787 18.756 19.4347 18.356 19.8393 18.2673C20.6317 18.0935 21.2649 17.7951 21.6829 17.4531C22.1014 17.1107 22.25 16.7762 22.25 16.4999C22.25 16.2236 22.1014 15.8891 21.6829 15.5467C21.2649 15.2047 20.6317 14.9063 19.8393 14.7325C19.4347 14.6438 19.1787 14.2438 19.2674 13.8392Z" fill="#94A3B8"/>
<path d="M3.83935 13.2673C4.24395 13.1786 4.64387 13.4346 4.73259 13.8392C4.82132 14.2438 4.56525 14.6438 4.16065 14.7325C3.36829 14.9063 2.73505 15.2047 2.31712 15.5467C1.89863 15.8891 1.75 16.2236 1.75 16.4999C1.75 16.7762 1.89863 17.1107 2.31712 17.4531C2.73505 17.7951 3.36829 18.0935 4.16065 18.2673C4.56525 18.356 4.82132 18.756 4.73259 19.1606C4.64387 19.5652 4.24395 19.8212 3.83935 19.7325C2.87746 19.5216 2.0107 19.1406 1.36719 18.614C0.724248 18.0879 0.25 17.3647 0.25 16.4999C0.25 15.6351 0.724248 14.9119 1.36719 14.3858C2.0107 13.8592 2.87746 13.4782 3.83935 13.2673Z" fill="#94A3B8"/>
</svg>
