<svg width="66" height="72" viewBox="0 0 66 72" fill="none" xmlns="http://www.w3.org/2000/svg">
<path fill-rule="evenodd" clip-rule="evenodd" d="M16.6348 5.16426L16.7995 5.18717C17.7716 5.32241 18.6316 5.44205 19.3411 5.59399C20.0971 5.75586 20.8662 5.98927 21.6012 6.44206C23.229 7.44474 24.3709 9.06626 24.8352 10.9097C25.0688 11.8372 25.0048 13.058 24.9347 13.9705C24.9133 14.2498 24.8871 14.5403 24.8577 14.8372L40.5736 17.0241C40.6121 16.7596 40.6519 16.5013 40.6931 16.2528C40.8422 15.3558 41.0721 14.1498 41.5257 13.305C42.4268 11.6263 43.9445 10.3469 45.789 9.81382C46.6216 9.57325 47.4289 9.55908 48.1974 9.6094C48.92 9.65675 49.7799 9.77646 50.7519 9.91173L50.9166 9.93465C51.8886 10.0699 52.7486 10.1895 53.4583 10.3414C54.2143 10.5033 54.9831 10.7368 55.7182 11.1895C57.346 12.1922 58.4881 13.8137 58.9521 15.6572C59.1584 16.4751 59.1732 17.2752 59.1276 18.0692C59.0848 18.8248 58.9748 19.7303 58.8472 20.7825L57.6663 30.5188C57.5387 31.5708 57.429 32.4766 57.2903 33.2193C57.1448 33.9984 56.939 34.7743 56.539 35.5188C55.6379 37.1976 54.1202 38.477 52.2757 39.0099C51.4431 39.2506 50.6358 39.2647 49.8673 39.2145C49.1447 39.1672 48.2848 39.0474 47.3128 38.9121L47.1484 38.8891C46.1761 38.7541 45.3161 38.6343 44.6064 38.4824C43.8504 38.3204 43.0815 38.0872 42.3465 37.6343C40.7187 36.6316 39.5766 35.0102 39.1125 33.1667C38.879 32.2392 38.9428 31.0184 39.013 30.1059C39.0342 29.8266 39.0606 29.5361 39.0899 29.2392L23.3741 27.0523C23.3357 27.3167 23.2959 27.5751 23.2546 27.8236C23.1054 28.7206 22.8756 29.9266 22.4221 30.7714C21.5208 32.4501 20.0032 33.7295 18.1585 34.2627C17.3261 34.503 16.5189 34.5171 15.7504 34.4669C15.0277 34.4196 14.1675 34.2998 13.1957 34.1648L13.0311 34.1418C12.059 34.0065 11.199 33.887 10.4895 33.7349C9.73347 33.573 8.96444 33.3396 8.2294 32.8869C6.6016 31.8842 5.45974 30.2626 4.99541 28.4192C4.7894 27.6013 4.77458 26.8012 4.81987 26.0072C4.86301 25.2516 4.97286 24.346 5.10054 23.2937L6.28138 13.5574C6.40896 12.5055 6.51875 11.5998 6.65736 10.8571C6.80279 10.078 7.0088 9.30214 7.40853 8.55755C8.30983 6.87879 9.82746 5.59939 11.6721 5.06635C12.5045 4.82581 13.3117 4.8116 14.0802 4.86196C14.8029 4.90927 15.663 5.02902 16.6348 5.16426ZM13.7494 9.91362C13.2588 9.88149 13.1116 9.92 13.0775 9.92986C12.6115 10.0645 12.1607 10.4087 11.8689 10.9522C11.8212 11.041 11.7358 11.2401 11.6339 11.7859C11.5286 12.3503 11.4372 13.0938 11.2979 14.2427L10.1353 23.8279C9.99601 24.9766 9.90698 25.7206 9.87417 26.2957C9.84251 26.8502 9.87684 27.0725 9.90461 27.1827C10.0637 27.8143 10.4376 28.3012 10.8845 28.5765C10.9274 28.6029 11.0686 28.6817 11.5495 28.7847C12.057 28.8933 12.7321 28.9889 13.811 29.139C14.8902 29.2891 15.5653 29.3815 16.0812 29.4153C16.5718 29.4474 16.719 29.4089 16.7531 29.3991C17.2121 29.2664 17.6562 28.9306 17.9483 28.4014C17.9501 28.394 17.9876 28.3005 18.0449 28.0743C18.1143 27.8002 18.1865 27.4391 18.2607 26.9931C18.4096 26.0973 18.5408 25.0202 18.6781 23.8881C18.7598 23.214 19.109 22.601 19.6471 22.1869C20.1852 21.7727 20.8672 21.5922 21.5398 21.6858L42.2337 24.5654C43.6013 24.7557 44.5638 26.0067 44.3978 27.3773C44.2604 28.5092 44.1302 29.5866 44.0606 30.4937C44.0259 30.9452 44.0093 31.3148 44.011 31.5999C44.0127 31.8507 44.0272 31.9522 44.0272 31.9522C44.1896 32.5731 44.5598 33.0519 45.0016 33.3239C45.0444 33.3504 45.1855 33.4291 45.6665 33.5321C46.1741 33.6408 46.8491 33.7363 47.928 33.8863C49.007 34.0365 49.6824 34.129 50.1984 34.1628C50.6888 34.1948 50.8359 34.1564 50.87 34.1466C51.3361 34.0119 51.787 33.6677 52.0786 33.1242C52.1265 33.0354 52.2119 32.8363 52.3139 32.2905C52.4192 31.726 52.5103 30.9825 52.6497 29.8337L53.8124 20.2484C53.9517 19.0998 54.0405 18.3557 54.0736 17.7807C54.105 17.2261 54.0709 17.0039 54.0429 16.8937C53.8839 16.2621 53.51 15.7752 53.0631 15.4999C53.0202 15.4734 52.8792 15.3947 52.3982 15.2917C51.8906 15.1831 51.2156 15.0875 50.1366 14.9374C49.0573 14.7873 48.3823 14.6949 47.8663 14.6611C47.3759 14.629 47.2287 14.6674 47.1947 14.6773C46.7357 14.8099 46.2915 15.1458 45.9992 15.675C45.9975 15.6823 45.9601 15.7758 45.9027 16.0021C45.8335 16.2761 45.7613 16.6372 45.687 17.0832C45.5379 17.9791 45.4069 19.0562 45.2696 20.1883C45.1879 20.8624 44.8386 21.4754 44.3006 21.8895C43.7623 22.3037 43.0805 22.4842 42.4079 22.3906L21.7139 19.511C20.3465 19.3207 19.3837 18.0697 19.55 16.6991C19.6873 15.5671 19.8174 14.4898 19.8871 13.5827C19.9218 13.1311 19.9382 12.7616 19.9365 12.4765C19.9349 12.2268 19.9204 12.1242 19.9204 12.1242C19.7582 11.5033 19.3878 11.0245 18.9461 10.7524C18.9032 10.726 18.762 10.6472 18.2811 10.5443C17.7737 10.4356 17.0985 10.3401 16.0196 10.1899C14.9405 10.0398 14.2653 9.94741 13.7494 9.91362ZM64.7906 41.3302C64.2826 41.4369 63.6238 41.6245 62.5728 41.9263C61.5225 42.2277 60.8637 42.4184 60.3727 42.5982C59.9076 42.769 59.7709 42.8693 59.7237 42.9081C59.3035 43.2533 58.9896 43.7967 58.9049 44.4433C58.9049 44.4433 58.9029 44.5463 58.9326 44.7957C58.966 45.0782 59.0277 45.4417 59.1175 45.8841C59.2988 46.7728 59.5607 47.8217 59.8364 48.9247C60.1675 50.248 59.3902 51.5956 58.079 51.972L37.9222 57.757C37.2627 57.9464 36.5543 57.8596 35.9596 57.5168C35.3649 57.1739 34.935 56.6042 34.7686 55.9383C34.4925 54.8353 34.2296 53.787 33.9717 52.9207C33.8432 52.4897 33.7274 52.1427 33.6254 51.8825C33.545 51.6777 33.4979 51.5909 33.493 51.5798C33.1494 51.114 32.6849 50.8535 32.2254 50.7887C32.1938 50.784 32.0438 50.7661 31.5592 50.868C31.051 50.9746 30.3923 51.1623 29.3414 51.464C28.291 51.7654 27.6323 51.9561 27.1412 52.136C26.6761 52.3068 26.5393 52.407 26.4923 52.4458C26.0675 52.7948 25.7514 53.3466 25.6707 54.0024C25.6565 54.1181 25.6503 54.3439 25.7498 54.8873C25.8531 55.4519 26.0331 56.1762 26.313 57.2954L28.6486 66.6316C28.9286 67.7511 29.1107 68.474 29.2844 69.0174C29.4525 69.5432 29.5601 69.7231 29.6132 69.7974C29.9586 70.2793 30.4317 70.5483 30.8996 70.6144C30.9312 70.6188 31.0813 70.6367 31.5658 70.5348C32.074 70.4282 32.7328 70.2405 33.7838 69.9391C34.8341 69.6374 35.4929 69.447 35.9839 69.2668C36.449 69.096 36.5857 68.9958 36.6329 68.957C37.0528 68.6117 37.3667 68.0684 37.4517 67.4217C37.4517 67.4217 37.4537 67.3191 37.424 67.0694C37.3906 66.7869 37.3289 66.4234 37.2387 65.9809C37.0578 65.0923 36.7959 64.0433 36.5202 62.9407C36.1891 61.6174 36.9664 60.2697 38.2772 59.8934L58.4341 54.108C59.0939 53.9187 59.8023 54.0054 60.397 54.3483C60.9916 54.6912 61.4216 55.2609 61.588 55.9268C61.8641 57.0297 62.1267 58.0784 62.3849 58.9444C62.5131 59.3757 62.6292 59.7223 62.7311 59.9825C62.8115 60.1877 62.8587 60.2745 62.8634 60.2853C63.207 60.7514 63.6717 61.0119 64.1311 61.0767C64.1625 61.0811 64.3127 61.099 64.7973 60.9971C65.3056 60.8904 65.9644 60.7028 67.015 60.4014C68.0657 60.1 68.7241 59.9093 69.2152 59.7291C69.6803 59.5583 69.8173 59.458 69.8642 59.4192C70.2891 59.0703 70.605 58.5188 70.6857 57.8627C70.6998 57.7469 70.7063 57.5211 70.6067 56.9778C70.5034 56.4131 70.3235 55.6888 70.0434 54.57L67.7079 45.2334C67.4278 44.1139 67.2459 43.391 67.0721 42.8476C66.904 42.3218 66.7963 42.1423 66.7433 42.068C66.3977 41.5857 65.9249 41.3167 65.4568 41.2509C65.4254 41.2462 65.2752 41.2287 64.7906 41.3302ZM63.7497 36.3761C64.503 36.2178 65.3056 36.1169 66.1638 36.238C68.0687 36.5067 69.7471 37.5681 70.8588 39.1196C71.3519 39.8081 71.6536 40.5537 71.8943 41.306C72.1234 42.0235 72.3445 42.9064 72.6003 43.9304L74.9733 53.4151C75.2294 54.4398 75.4502 55.3223 75.5865 56.0658C75.7296 56.8482 75.8133 57.643 75.7104 58.4803C75.4788 60.3659 74.5527 62.1189 73.0785 63.3302C72.4137 63.8769 71.6867 64.2148 70.9587 64.4821C70.2753 64.7325 69.4386 64.9728 68.4909 65.2445L68.3316 65.2904C67.3849 65.5621 66.5479 65.8024 65.8382 65.9516C65.0849 66.1098 64.2823 66.2104 63.424 66.0896C61.5192 65.8209 59.8408 64.7595 58.7291 63.2077C58.1691 62.426 57.7908 61.2552 57.533 60.3899C57.4658 60.1644 57.399 59.9305 57.3328 59.6913L42.0086 64.0892C42.0771 64.391 42.1416 64.6866 42.1997 64.9711C42.3819 65.8672 42.5959 67.068 42.4791 68.0181C42.2472 69.9037 41.3211 71.6566 39.8473 72.8679C39.1824 73.4147 38.4554 73.7525 37.7271 74.0195C37.044 74.2702 36.2073 74.5102 35.2596 74.7822L35.1003 74.8281C34.1533 75.0998 33.3164 75.3401 32.6067 75.4893C31.8535 75.6476 31.0509 75.7482 30.1927 75.6273C28.2878 75.3587 26.6094 74.2972 25.4978 72.7454C25.0046 72.0569 24.7029 71.3114 24.4624 70.5591C24.233 69.8416 24.0121 68.9587 23.756 67.9347L21.3834 58.4499C21.127 57.4253 20.9062 56.5427 20.7701 55.7992C20.6268 55.0169 20.5431 54.2221 20.646 53.3851C20.8778 51.4991 21.8038 49.7462 23.2778 48.5349C23.9427 47.9884 24.6697 47.6503 25.3979 47.3833C26.0813 47.1325 26.918 46.8926 27.8657 46.6206L28.0246 46.575C28.9715 46.303 29.8086 46.0627 30.5184 45.9138C31.2716 45.7556 32.0741 45.6546 32.9323 45.7758C34.8371 46.0441 36.5158 47.1059 37.6272 48.6574C38.1875 49.4394 38.5658 50.6098 38.8236 51.4755C38.8905 51.7006 38.9573 51.9345 39.0238 52.1741L54.348 47.7758C54.2795 47.4741 54.215 47.1785 54.1569 46.8943C53.9744 45.9979 53.7607 44.7971 53.8775 43.8473C54.1094 41.9617 55.0351 40.2084 56.5093 38.9971C57.1742 38.4507 57.9012 38.1125 58.6292 37.8456C59.3126 37.5948 60.1493 37.3548 61.097 37.0828L61.2563 37.0373C62.2033 36.7652 63.0403 36.5249 63.7497 36.3761Z" fill="#1E2E41"/>
</svg>
