<svg width="66" height="72" viewBox="0 0 66 72" fill="none" xmlns="http://www.w3.org/2000/svg">
<path fill-rule="evenodd" clip-rule="evenodd" d="M42.121 9.31715C44.6563 7.79296 47.952 7.71868 50.7661 9.7538C59.7466 16.2486 70.0312 27.826 70.0312 44.2501C70.0312 57.0967 64.5118 65.3577 57.4847 70.3183C53.1674 73.3659 48.3408 75.1307 43.9867 76.0247C42.3822 76.5695 40.8375 76.7814 39.5999 76.7814C39.2533 76.7814 38.8834 76.7679 38.4946 76.7389C37.9417 76.7679 37.4095 76.7814 36.8999 76.7814C31.9695 76.7814 24.6835 75.1472 18.5763 70.2204C12.3609 65.2062 7.59375 56.9604 7.59375 44.2501C7.59375 33.8663 13.0793 26.8827 18.2421 22.9443C20.3915 21.3046 22.9672 21.2773 25.0053 22.3901C26.9764 23.4664 28.3578 25.5409 28.6074 27.9775L28.8971 30.8052C29.0084 31.892 29.5641 32.7941 30.1447 33.2332C30.4172 33.4393 30.6383 33.504 30.7855 33.5151C30.9097 33.5244 31.1027 33.5077 31.3896 33.3212C33.5937 31.8888 35.2674 29.3122 36.3936 26.2801C37.5091 23.2759 37.9688 20.1375 37.9688 18.0002V16.908C37.9688 13.6249 39.6373 10.8101 42.121 9.31715ZM42.631 71.1337C41.1942 71.4135 39.8223 71.5842 38.5668 71.6642C36.9336 71.4989 34.8756 70.9416 33.1565 69.7628C31.183 68.4094 29.5312 66.1721 29.5312 62.2503C29.5312 57.5176 32.4593 53.9232 35.5718 51.6208C35.5803 51.6549 35.5863 51.6977 35.5863 51.7504V51.7872C35.5863 52.5557 35.5863 53.7187 35.7311 54.9283C35.8749 56.1315 36.1847 57.6107 36.9475 58.9118C37.479 59.8187 38.2965 60.5858 39.4058 60.9125C40.4963 61.2338 41.5354 61.0313 42.3454 60.6489C43.8844 59.9216 44.9847 58.4035 45.4467 56.8024C46.8376 57.9351 48.0938 59.7063 48.0938 62.2503C48.0938 66.3122 46.5834 68.5616 44.9293 69.8579C44.2041 70.4263 43.4106 70.8414 42.631 71.1337ZM52.3719 67.5761C53.1171 67.1505 53.8505 66.6868 54.5653 66.1822C60.288 62.1427 64.9688 55.4038 64.9688 44.2501C64.9688 30.1183 56.1192 19.8729 47.7991 13.856C46.7033 13.0634 45.6074 13.1281 44.7292 13.656C43.7991 14.2153 43.0312 15.3659 43.0312 16.908V18.0002C43.0312 20.7293 42.468 24.4652 41.1392 28.0426C39.8209 31.5918 37.6292 35.304 34.1483 37.5659C31.6706 39.1761 28.9984 38.7134 27.0909 37.271C25.2904 35.9091 24.1024 33.6778 23.8609 31.3211L23.5713 28.4934C23.4841 27.6427 23.0231 27.0758 22.5793 26.8335C22.2024 26.6277 21.7905 26.6047 21.3126 26.9693C17.0356 30.2321 12.6562 35.8585 12.6562 44.2501C12.6562 55.5398 16.8141 62.2942 21.7549 66.2801C23.0966 67.3625 24.5126 68.2538 25.9437 68.9787C25.0217 67.1249 24.4688 64.8953 24.4688 62.2503C24.4688 55.151 28.9243 50.1921 32.731 47.426C34.4618 46.1685 36.5421 46.2063 38.1304 47.1675C39.6637 48.0953 40.6488 49.8114 40.6488 51.7504C40.6488 52.5428 40.6512 53.4382 40.7575 54.3272C40.7751 54.4727 40.7946 54.6124 40.8166 54.746C41.3573 53.5023 42.3508 52.5374 43.5274 52.0275C44.9388 51.4156 46.7336 51.4281 48.2328 52.5553C50.5936 54.3309 53.1562 57.5183 53.1562 62.2503C53.1562 64.2544 52.8727 66.0243 52.3719 67.5761Z" fill="#1E2E41"/>
</svg>
