<svg width="66" height="72" viewBox="0 0 66 72" fill="none" xmlns="http://www.w3.org/2000/svg">
<path fill-rule="evenodd" clip-rule="evenodd" d="M40.5 4.21875C31.6462 4.21875 24.4688 11.3962 24.4688 20.25C24.4688 29.1038 31.6462 36.2812 40.5 36.2812C49.354 36.2812 56.5312 29.1038 56.5312 20.25C56.5312 11.3962 49.354 4.21875 40.5 4.21875ZM29.5312 20.25C29.5312 14.1921 34.4422 9.28125 40.5 9.28125C46.5578 9.28125 51.4688 14.1921 51.4688 20.25C51.4688 26.3079 46.5578 31.2188 40.5 31.2188C34.4422 31.2188 29.5312 26.3079 29.5312 20.25Z" fill="#1E2E41"/>
<path d="M60.75 10.9688C59.3521 10.9688 58.2188 12.102 58.2188 13.5C58.2188 14.898 59.3521 16.0312 60.75 16.0312C65.3957 16.0312 68.3438 19.0881 68.3438 21.9375C68.3438 24.7869 65.3957 27.8438 60.75 27.8438C59.3521 27.8438 58.2188 28.977 58.2188 30.375C58.2188 31.773 59.3521 32.9062 60.75 32.9062C67.288 32.9062 73.4062 28.4079 73.4062 21.9375C73.4062 15.4671 67.288 10.9688 60.75 10.9688Z" fill="#1E2E41"/>
<path d="M22.7812 13.5C22.7812 12.102 21.648 10.9688 20.25 10.9688C13.7119 10.9688 7.59375 15.4671 7.59375 21.9375C7.59375 28.4079 13.7119 32.9062 20.25 32.9062C21.648 32.9062 22.7812 31.773 22.7812 30.375C22.7812 28.977 21.648 27.8438 20.25 27.8438C15.6043 27.8438 12.6562 24.7869 12.6562 21.9375C12.6562 19.0881 15.6043 16.0312 20.25 16.0312C21.648 16.0312 22.7812 14.898 22.7812 13.5Z" fill="#1E2E41"/>
<path fill-rule="evenodd" clip-rule="evenodd" d="M40.5 41.3438C34.478 41.3438 28.9118 42.9664 24.777 45.7228C20.6599 48.4677 17.7188 52.5373 17.7188 57.375C17.7188 62.2127 20.6599 66.2823 24.777 69.0272C28.9118 71.7835 34.478 73.4062 40.5 73.4062C46.522 73.4062 52.0881 71.7835 56.2231 69.0272C60.3399 66.2823 63.2812 62.2127 63.2812 57.375C63.2812 52.5373 60.3399 48.4677 56.2231 45.7228C52.0881 42.9664 46.522 41.3438 40.5 41.3438ZM22.7812 57.375C22.7812 54.7567 24.3732 52.0766 27.5852 49.9351C30.7795 47.8055 35.3383 46.4062 40.5 46.4062C45.6617 46.4062 50.2207 47.8055 53.4148 49.9351C56.6268 52.0766 58.2188 54.7567 58.2188 57.375C58.2188 59.9933 56.6268 62.6734 53.4148 64.8148C50.2207 66.9445 45.6617 68.3438 40.5 68.3438C35.3383 68.3438 30.7795 66.9445 27.5852 64.8148C24.3732 62.6734 22.7812 59.9933 22.7812 57.375Z" fill="#1E2E41"/>
<path d="M65.0275 46.7077C65.3268 45.3422 66.6768 44.4782 68.0424 44.7775C71.2884 45.4893 74.2139 46.7752 76.3857 48.5525C78.5558 50.3281 80.1562 52.7689 80.1562 55.6876C80.1562 58.6063 78.5558 61.0471 76.3857 62.8226C74.2139 64.5999 71.2884 65.8858 68.0424 66.5976C66.6768 66.8969 65.3268 66.0329 65.0275 64.6674C64.7281 63.3019 65.5921 61.9519 66.9576 61.6525C69.632 61.066 71.769 60.0589 73.1798 58.9046C74.5922 57.749 75.0937 56.6201 75.0937 55.6876C75.0937 54.755 74.5922 53.6261 73.1798 52.4705C71.769 51.3163 69.632 50.3092 66.9576 49.7226C65.5921 49.4232 64.7281 48.0732 65.0275 46.7077Z" fill="#1E2E41"/>
<path d="M12.9578 44.7775C14.3233 44.4782 15.6731 45.3422 15.9725 46.7077C16.272 48.0732 15.4077 49.4232 14.0422 49.7226C11.368 50.3092 9.23079 51.3163 7.82028 52.4705C6.40788 53.6261 5.90625 54.755 5.90625 55.6876C5.90625 56.6201 6.40788 57.749 7.82028 58.9046C9.23079 60.0589 11.368 61.066 14.0422 61.6525C15.4077 61.9519 16.272 63.3019 15.9725 64.6674C15.6731 66.0329 14.3233 66.8969 12.9578 66.5976C9.71143 65.8858 6.78611 64.5999 4.61427 62.8226C2.44434 61.0471 0.84375 58.6063 0.84375 55.6876C0.84375 52.7689 2.44434 50.3281 4.61427 48.5525C6.78611 46.7752 9.71143 45.4893 12.9578 44.7775Z" fill="#1E2E41"/>
</svg>
