<svg width="66" height="72" viewBox="0 0 66 72" fill="none" xmlns="http://www.w3.org/2000/svg">
<path fill-rule="evenodd" clip-rule="evenodd" d="M40.5003 4.21875C31.6466 4.21875 24.4692 11.3962 24.4692 20.25C24.4692 29.1038 31.6466 36.2812 40.5003 36.2812C49.3543 36.2812 56.5316 29.1038 56.5316 20.25C56.5316 11.3962 49.3543 4.21875 40.5003 4.21875ZM29.5317 20.25C29.5317 14.1921 34.4425 9.28125 40.5003 9.28125C46.5585 9.28125 51.4691 14.1921 51.4691 20.25C51.4691 26.3079 46.5585 31.2188 40.5003 31.2188C34.4425 31.2188 29.5317 26.3079 29.5317 20.25Z" fill="#1E2E41"/>
<path fill-rule="evenodd" clip-rule="evenodd" d="M40.5003 41.3438C32.6922 41.3438 25.4983 43.1187 20.1676 46.117C14.9162 49.0711 10.9692 53.5481 10.9692 59.0625L10.969 59.4067C10.9652 63.3278 10.9604 68.2493 15.2771 71.7643C17.4016 73.4943 20.3736 74.7245 24.3889 75.5376C28.4155 76.3523 33.6635 76.7812 40.5003 76.7812C47.3374 76.7812 52.5855 76.3523 56.6119 75.5376C60.6275 74.7245 63.5995 73.4943 65.7237 71.7643C70.0404 68.2493 70.0356 63.3278 70.0319 59.4067L70.0316 59.0625C70.0316 53.5481 66.0849 49.0711 60.8334 46.117C55.5025 43.1187 48.3087 41.3438 40.5003 41.3438ZM16.0317 59.0625C16.0317 56.1894 18.1288 53.0722 22.6496 50.5295C27.0909 48.0313 33.397 46.4062 40.5003 46.4062C47.604 46.4062 53.9099 48.0313 58.3514 50.5295C62.8722 53.0722 64.9691 56.1894 64.9691 59.0625C64.9691 63.4763 64.8331 65.961 62.5269 67.8389C61.2765 68.8574 59.186 69.8514 55.6075 70.5756C52.0405 71.2976 47.1636 71.7188 40.5003 71.7188C33.8374 71.7188 28.9604 71.2976 25.3933 70.5756C21.8148 69.8514 19.7243 68.8574 18.4738 67.8389C16.1678 65.961 16.0317 63.4763 16.0317 59.0625Z" fill="#1E2E41"/>
</svg>
